<svg xmlns="http://www.w3.org/2000/svg"><symbol id="email-icon" viewBox="0 0 64 64"><defs><style>.cls-1{fill:#231f20}</style></defs><path d="M33.31 11.77c10.69 0 18 8.23 18 18.69 0 8.34-4 12.92-8.63 12.92a4.86 4.86 0 0 1-4.91-5V38A12.56 12.56 0 0 1 28 43.38c-5.14 0-8.69-3.49-8.69-9 0-8.29 7-14.69 13.89-14.69a7.75 7.75 0 0 1 7.49 5l.8-3.94h1.71l-3.55 16.8a7.11 7.11 0 0 0 0 1 3.09 3.09 0 0 0 3.08 3.31c2.23 0 7-2.4 7-11.43 0-9.6-6.74-16.91-16.51-16.91-11.26 0-20.81 10-20.81 20.74 0 9.26 7 16.35 16.63 16.35a19.62 19.62 0 0 0 10.75-3.26l.91 1.32a22 22 0 0 1-11.88 3.6 17.66 17.66 0 0 1-18.12-18c-.08-12.44 10.72-22.5 22.61-22.5zm6.91 14.75a7.37 7.37 0 0 0-7-5.32c-6.63 0-12 6.52-12 13.15 0 4.28 2.46 7.48 6.8 7.48 4.69 0 8.29-3.37 10.29-6.34z" class="cls-1"/><path d="M28.74 52.74c-10.62 0-18.62-7.93-18.62-18.45a23.41 23.41 0 0 1 23.19-23c10.72 0 18.5 8.07 18.5 19.19 0 6.46-2.86 13.42-9.13 13.42a5.28 5.28 0 0 1-5.33-4.55A13 13 0 0 1 28 43.88c-5.49 0-9.19-3.83-9.19-9.53 0-9 7.59-15.19 14.39-15.19a8.25 8.25 0 0 1 7.29 3.94l.51-2.51a.49.49 0 0 1 .49-.4h1.71a.46.46 0 0 1 .38.18.5.5 0 0 1 .11.42l-3.55 16.8a6.86 6.86 0 0 0 0 .93 2.58 2.58 0 0 0 2.58 2.81c1.8 0 6.47-2 6.47-10.93 0-9.51-6.73-16.41-16-16.41-10.82 0-20.31 9.46-20.31 20.24 0 9 6.94 15.85 16.13 15.85a19 19 0 0 0 10.43-3.18.5.5 0 0 1 .68.14l.88 1.31a.51.51 0 0 1-.14.71 22.48 22.48 0 0 1-12.12 3.68zm4.57-40.47a22.4 22.4 0 0 0-22.19 22c0 10 7.57 17.45 17.62 17.45a21.29 21.29 0 0 0 11.17-3.25l-.34-.47A19.78 19.78 0 0 1 29 51.08c-9.76 0-17.13-7.24-17.13-16.85 0-11.32 10-21.24 21.31-21.24 9.86 0 17 7.32 17 17.41 0 9.79-5.39 11.93-7.47 11.93a3.57 3.57 0 0 1-3.58-3.81 7 7 0 0 1 .06-1.11l3.42-16.22h-.69l-.72 3.54a.49.49 0 0 1-.45.4.48.48 0 0 1-.5-.32 7.26 7.26 0 0 0-7-4.65c-6.39 0-13.45 5.84-13.45 14.19 0 5.18 3.22 8.53 8.19 8.53 4.19 0 7.67-2.78 9.37-5.17a.5.5 0 0 1 .56-.18.49.49 0 0 1 .35.47v.35a4.38 4.38 0 0 0 4.41 4.53c4.79 0 8.13-5.11 8.13-12.42 0-10.54-7.36-18.19-17.5-18.19zM28 42.33c-4.36 0-7.3-3.21-7.3-8 0-7.27 5.84-13.65 12.5-13.65a7.9 7.9 0 0 1 7.51 5.67.43.43 0 0 1 0 .25l-1.94 9a.51.51 0 0 1-.07.17c-1.33 1.97-5.03 6.56-10.7 6.56zm5.2-20.63c-6 0-11.5 6-11.5 12.65 0 4.24 2.47 7 6.3 7 5.12 0 8.54-4.16 9.82-6l1.9-8.75a6.83 6.83 0 0 0-6.53-4.9z" class="cls-1"/></symbol><symbol id="behance-logo" viewBox="0 0 64 64"><defs><style>.cls-1{fill:#231f20}</style></defs><path d="M19.33 52H1a1 1 0 0 1-1-1V13.26a1 1 0 0 1 1-.95h17.8c10.79 0 13.05 5.7 13.05 10.49A9 9 0 0 1 28 30.44c3.65 1.75 5.7 5.18 5.7 9.68C33.65 48.85 25.94 52 19.33 52zM1.92 50h17.41c6 0 12.41-2.61 12.41-9.92 0-4.39-2.22-7.43-6.25-8.58a.94.94 0 0 1-.69-.83.93.93 0 0 1 .53-.94C28.44 28.26 30 26 30 22.8c0-5.8-3.7-8.59-11.2-8.59H1.92zm16.28-4.13H8.59a1 1 0 0 1-1-1V34.6a1 1 0 0 1 1-1h9.77c5.56 0 6.72 3.43 6.72 6.32 0 3.96-2.31 5.95-6.88 5.95zM9.54 44h8.66c3.49 0 5-1.19 5-4 0-3-1.49-4.41-4.82-4.41H9.54zm8.2-14.64H8.59a1 1 0 0 1-1-.95V19.6a1 1 0 0 1 1-1h8.51c4.43 0 6.68 1.77 6.68 5.27s-2.26 5.45-6.04 5.45zm-8.2-1.91h8.2c2.74 0 4.13-1.18 4.13-3.5s-1.38-3.36-4.77-3.36H9.54zm47.32-5.64H41.68a1 1 0 0 1-1-1V15.8a1 1 0 0 1 1-1h15.18a.94.94 0 0 1 1 1v5.05a1 1 0 0 1-1 .96zM42.63 19.9H55.9v-3.14H42.63z" class="cls-1"/><path d="M48.68 52.69c-9 0-15-6.12-15-15.24 0-8.86 6.32-15.29 15-15.29a13.93 13.93 0 0 1 10.48 4.13c2.75 2.94 4.1 7.25 3.78 12.15a1 1 0 0 1-.95.89H43.25c.3 2.53 1.5 5.84 5.69 5.84a6.32 6.32 0 0 0 5.36-3.47 1 1 0 0 1 .92-.69h6.62a1 1 0 0 1 .77.4.92.92 0 0 1 .13.85c-2.17 6.63-7.3 10.43-14.06 10.43zm0-28.63c-7.61 0-13.13 5.63-13.13 13.39 0 8.1 5.15 13.34 13.13 13.34a12.07 12.07 0 0 0 11.79-7.87h-4.62a8.4 8.4 0 0 1-6.91 4.16c-4.58 0-7.45-3.24-7.68-8.66a.94.94 0 0 1 .26-.7 1 1 0 0 1 .69-.3h18.87a13.82 13.82 0 0 0-3.31-9.83 12.11 12.11 0 0 0-9.09-3.53zm5.79 10.37H42.21a1 1 0 0 1-1-1c.13-2.74 2.1-5.66 7.21-5.66 3.66 0 6.1.93 6.94 5.53a.94.94 0 0 1-.2.78 1 1 0 0 1-.69.35zm-11.13-1.91h9.94c-.65-2.2-1.86-2.84-4.81-2.84-3.54 0-4.74 1.58-5.13 2.84z" class="cls-1"/></symbol><symbol id="facebook-icon" viewBox="0 0 64 64"><defs><style>.cls-1{fill:#231f20}</style></defs><path d="M33.88 51.1h-6.83a.92.92 0 0 1-.92-.92v-15.9h-4.79a.92.92 0 0 1-.92-.91v-6.56a.92.92 0 0 1 .92-.91h4.79V22c0-5.91 3.61-9.58 9.42-9.58a46.88 46.88 0 0 1 5.22.27.92.92 0 0 1 .8.91v5.86a.92.92 0 0 1-.92.91h-3.5c-2 0-2.36.67-2.36 2.28v3.25h5.63a.9.9 0 0 1 .69.31.87.87 0 0 1 .22.72l-.85 6.55a.92.92 0 0 1-.91.8h-4.78v15.9a.92.92 0 0 1-.91.92zM28 49.26h5V33.37a.92.92 0 0 1 .92-.92h4.89l.61-4.72h-5.5a.92.92 0 0 1-.92-.92v-4.18c0-1.76.44-4.11 4.19-4.11h2.59V14.4c-1-.08-2.49-.17-4.19-.17-4.79 0-7.59 2.9-7.59 7.77v4.83a.92.92 0 0 1-.91.92h-4.83v4.72h4.79a.92.92 0 0 1 .91.92z" class="cls-1"/></symbol><symbol id="github-logo" viewBox="0 0 64 64"><defs><style>.cls-1{fill:#231f20}</style></defs><path d="M38.16 53.09a2.05 2.05 0 0 1-1.33-.45 2 2 0 0 1-.71-1.57V45.4a3.85 3.85 0 0 0-1-3.06 1 1 0 0 1 .54-1.75c4.22-.47 8.54-1.93 8.54-9.19a7 7 0 0 0-1.87-4.87 1 1 0 0 1-.18-1.05 6.26 6.26 0 0 0 0-4.12 10.34 10.34 0 0 0-4.39 2 1 1 0 0 1-.83.14 18.52 18.52 0 0 0-9.8 0 1 1 0 0 1-.83-.14 10.28 10.28 0 0 0-4.39-2 6.27 6.27 0 0 0 0 4.12 1 1 0 0 1-.18 1.05 7 7 0 0 0-1.87 4.87c0 7.26 4.31 8.72 8.52 9.2a1 1 0 0 1 .84.7 1 1 0 0 1-.3 1.05 3.36 3.36 0 0 0-1 2.15 1 1 0 0 1-.58.77c-1 .46-4.33 1.61-6.65-1.22l.16.37c.05.16 1.08 2.85 5.8 1.83a1 1 0 0 1 .84.19 1 1 0 0 1 .38.78v3.85a2 2 0 0 1-.71 1.56 2.19 2.19 0 0 1-1.89.41h-.13a21.65 21.65 0 1 1 13.69 0h-.12a2.93 2.93 0 0 1-.55.05zm.38-1zm-12.82-1a.47.47 0 0 0 .2 0 12.58 12.58 0 0 1 0-1.27v-1.4c-5.55.67-6.9-3.27-6.92-3.31a4.53 4.53 0 0 0-1.78-2.43l-.12-.08c-.41-.28-1.51-1-1.18-2.06s1.41-1 1.9-1a5.36 5.36 0 0 1 4 2.65A3.24 3.24 0 0 0 26 43.64a6.1 6.1 0 0 1 .43-1.29c-4.1-.78-8.64-3.05-8.64-11a8.89 8.89 0 0 1 2-5.76 8.71 8.71 0 0 1 .4-5.61 1 1 0 0 1 .62-.59c.36-.11 2.28-.53 6.16 2a20.71 20.71 0 0 1 10 0c3.87-2.52 5.8-2.1 6.15-2a1 1 0 0 1 .63.59 8.71 8.71 0 0 1 .4 5.61 8.89 8.89 0 0 1 2 5.76c0 7.9-4.55 10.17-8.66 10.93a7.22 7.22 0 0 1 .63 3.07v5.67h.17a19.63 19.63 0 1 0-12.57 0z" class="cls-1"/><path d="M19.18 41.47a.27.27 0 0 1-.36.06c-.15-.06-.23-.2-.18-.31s.21-.13.35-.06.24.21.19.31zm.82.93c-.09.09-.29.05-.42-.09s-.16-.34-.06-.43.29-.05.43.09.16.34.05.43zm.83 1.19c-.13.09-.34 0-.46-.18a.35.35 0 0 1 0-.49c.13-.09.33 0 .46.17s.13.41 0 .5zm1.11 1.15c-.11.12-.35.09-.53-.08a.33.33 0 1 1 .42-.45c.18.17.23.41.11.53zm1.54.67c-.05.16-.28.23-.51.16s-.39-.26-.34-.42.28-.24.51-.17.39.26.34.43zm1.69.12c0 .17-.19.31-.44.31a.4.4 0 0 1-.45-.3c0-.17.2-.31.44-.31s.45.13.45.3zm1.57-.27c0 .17-.14.34-.38.38s-.46 0-.49-.22.14-.34.38-.38.46.05.49.22z" class="cls-1"/></symbol><symbol id="linkedin-logo" viewBox="0 0 64 64"><defs><style>.cls-1{fill:#231f20}</style></defs><path id="linkedin-linkedin" d="M20.83 53.25h-8.38a1 1 0 0 1-1-1v-27a1 1 0 0 1 1-1h8.38a1 1 0 0 1 1 1v27a1 1 0 0 1-1 1zm-7.38-2h6.38v-25h-6.38zm3.19-28.64a5.86 5.86 0 1 1 5.86-5.86 5.87 5.87 0 0 1-5.86 5.86zm0-9.72a3.86 3.86 0 1 0 3.86 3.86 3.86 3.86 0 0 0-3.86-3.86zm35.58 40.36h-8.38a1 1 0 0 1-1-1V39.14c0-4.17-.5-6.15-3.35-6.15s-4 1.66-4 5.93v13.33a1 1 0 0 1-1 1h-8.4a1 1 0 0 1-1-1v-27a1 1 0 0 1 1-1h8a1 1 0 0 1 1 1v1a10.26 10.26 0 0 1 7.05-2.64c9.73 0 11 7 11 13.84v14.8a1 1 0 0 1-.92 1zm-7.38-2h6.38V37.46c0-7.31-1.52-11.84-9-11.84a7.84 7.84 0 0 0-7.05 3.82 1 1 0 0 1-.88.54h-.12a1 1 0 0 1-1-1v-2.69h-6v25h6.37V38.92c0-2.17 0-7.93 6-7.93 5.35 0 5.35 5.3 5.35 8.15z" class="cls-1"/></symbol><symbol id="calendar-icon" viewBox="0 0 64 64"><defs><style>.cls-1{fill:#231f20}</style></defs><path d="M51.08 28.76H11.4a1 1 0 0 1 0-2h39.68a1 1 0 0 1 0 2zm-30.87-6.17h-.89a2 2 0 0 1-1.9-2.14v-7.31a2 2 0 0 1 1.9-2.14h.89a2 2 0 0 1 1.91 2.13v7.31a2 2 0 0 1-1.91 2.15zm-.89-9.54a.09.09 0 0 0-.09.09v7.31a.09.09 0 0 0 .09.1h.89a.09.09 0 0 0 .09-.1v-7.31a.09.09 0 0 0-.09-.09zm23.53 9.54H42a2 2 0 0 1-1.91-2.14v-7.31A2 2 0 0 1 42 11h.89a2 2 0 0 1 1.91 2.13v7.31a2 2 0 0 1-1.95 2.15zM42 13.05a.09.09 0 0 0-.09.09v7.31a.09.09 0 0 0 .09.1h.89a.09.09 0 0 0 .09-.1v-7.31a.09.09 0 0 0-.09-.09z" class="cls-1"/><path d="M41 20.44H21.21a1 1 0 0 1 0-2H41a1 1 0 0 1 0 2z" class="cls-1"/><path d="M46.41 52.24h-35a1 1 0 0 1-.9-1V19.42a1 1 0 0 1 .9-1h6.92a1 1 0 0 1 0 2h-6V50.2h32.81l-2.73-8.85a1.1 1.1 0 0 1 .12-.92.87.87 0 0 1 .74-.43h6.9V20.44h-6.32a1 1 0 0 1 0-2h7.23a1 1 0 0 1 .91 1V41a1 1 0 0 1-.91 1h-6.54l2.73 8.85a1.1 1.1 0 0 1-.12.92.89.89 0 0 1-.74.47z" class="cls-1"/><path d="M46.41 52.24a.78.78 0 0 1-.41-.12 1.07 1.07 0 0 1-.4-1.37l4.67-10.2a.86.86 0 0 1 1.22-.44 1.08 1.08 0 0 1 .4 1.37l-4.67 10.2a.91.91 0 0 1-.81.56z" class="cls-1"/></symbol><symbol id="instagram-logo" viewBox="0 0 64 64"><defs><style>.cls-1{fill:#231f20}</style></defs><path d="M33.4 52.05h-7.73a25 25 0 0 1-6.06-.53A8.78 8.78 0 0 1 12.82 44a30.57 30.57 0 0 1-.29-3.6c-.15-4-.11-8.13-.08-12.09v-2.5a24.86 24.86 0 0 1 .55-6.03A8.77 8.77 0 0 1 20.44 13a34.26 34.26 0 0 1 3.44-.3c1.87-.09 3.65-.08 5.21-.07h10.53a22.58 22.58 0 0 1 5.06.51 8.78 8.78 0 0 1 6.79 7.44 30.23 30.23 0 0 1 .29 3.6c.14 4 .11 8.11.08 12.06v2.53a25 25 0 0 1-.54 6.06 8.75 8.75 0 0 1-7.44 6.79 30.3 30.3 0 0 1-3.6.3c-2.26.08-4.58.13-6.86.13zM27.68 14.5c-1.17 0-2.4 0-3.65.07a30.53 30.53 0 0 0-3.3.28 6.87 6.87 0 0 0-5.9 5.39 23.53 23.53 0 0 0-.48 5.57v2.54c0 3.94-.06 8 .08 12a26.5 26.5 0 0 0 .27 3.38 6.88 6.88 0 0 0 5.39 5.9 23.22 23.22 0 0 0 5.59.48h2.53c3.94 0 8 .06 12-.07a27.84 27.84 0 0 0 3.38-.28 6.88 6.88 0 0 0 5.91-5.39 24.2 24.2 0 0 0 .5-5.55v-2.56c0-3.93.07-8-.07-12a30.15 30.15 0 0 0-.27-3.38A6.9 6.9 0 0 0 44.24 15a21.36 21.36 0 0 0-4.64-.45H27.68z" class="cls-1"/><path d="M32.15 42.38a10 10 0 1 1 0-20 10 10 0 0 1 10 10 10 10 0 0 1-10 10zm0-18.12a8.12 8.12 0 0 0 0 16.23 8.12 8.12 0 1 0 0-16.23zM47.24 20a2.82 2.82 0 1 1-2.8-2.81 2.76 2.76 0 0 1 2.8 2.81z" class="cls-1"/></symbol><symbol id="vimeo-logo" viewBox="0 0 64 64"><defs><style>.cls-1{fill:#231f20}</style></defs><path d="M29.35 53a6.06 6.06 0 0 1-4.63-2.27 16.66 16.66 0 0 1-3.46-6.79q-.84-3-1.66-6-1-3.73-2.05-7.44a27.28 27.28 0 0 0-1.46-4c-.61-1.32-1.1-2-1.53-2.15s-1.19.12-2.41.79a2.42 2.42 0 0 1-3.47-.54A2.51 2.51 0 0 1 9 20.8c.74-.66 1.47-1.34 2.2-2a56.23 56.23 0 0 1 6.8-5.62c2.35-1.56 4.62-2 6.56-1.27 1.32.5 3.07 1.78 4 5.05.72 2.67 1.17 5.42 1.62 8.09.23 1.36.46 2.73.72 4.09a24.05 24.05 0 0 0 1.89 6.42c.58 1.14 1 1.28 1.09 1.29s.48 0 1.21-.82a22.5 22.5 0 0 0 5.46-9.61 3.23 3.23 0 0 0-.19-2.75c-.56-.71-1.83-.87-2.84-.88-.58.13-1.8.36-2.46-.47s-.11-2.21.3-3.07c2.2-4.61 5.17-7.15 9.35-8 3.5-.71 6.24-.22 8.15 1.45s2.91 4.74 2.62 8.61a20.77 20.77 0 0 1-2.77 8.56 76.21 76.21 0 0 1-13.32 17.69 19.4 19.4 0 0 1-8 5.11 7 7 0 0 1-2.04.33zm-15-30.71a2.93 2.93 0 0 1 .88.13c1.21.4 2 1.57 2.73 3.21a29.8 29.8 0 0 1 1.57 4.3q1.05 3.72 2.05 7.45.82 3 1.66 6a14.67 14.67 0 0 0 3 6 4 4 0 0 0 4.62 1.36 17.37 17.37 0 0 0 7.14-4.6A74.23 74.23 0 0 0 50.92 28.9a19 19 0 0 0 2.54-7.73c.16-2.25 0-5.28-2-7-1.41-1.25-3.58-1.58-6.44-1-3.5.72-6 2.91-7.94 6.9-.16.35-.27.6-.34.78l.35-.07a1 1 0 0 1 .3 0c2.1 0 3.6.55 4.46 1.65s1 2.56.56 4.45a24.29 24.29 0 0 1-5.91 10.47 3.44 3.44 0 0 1-3 1.48c-1-.14-1.87-.91-2.61-2.38a25.21 25.21 0 0 1-2.07-6.94c-.27-1.37-.5-2.76-.73-4.14-.44-2.62-.89-5.33-1.58-7.9-.52-1.94-1.46-3.22-2.73-3.7s-3-.13-4.74 1.06a54.85 54.85 0 0 0-6.54 5.42c-.74.68-1.48 1.37-2.23 2-.47.41-.48.55-.09 1.06a.94.94 0 0 0 .27.27s.15 0 .64-.26a6.87 6.87 0 0 1 3.21-1.03z" class="cls-1"/></symbol><symbol id="www-icon" viewBox="0 0 64 64"><defs><style>.cls-1{fill:#231f20}</style></defs><path d="M32 53.49A21.53 21.53 0 1 1 53.52 32 21.55 21.55 0 0 1 32 53.49zm0-41.05A19.53 19.53 0 1 0 51.52 32 19.54 19.54 0 0 0 32 12.44z" class="cls-1"/><path d="M32 53.49a1 1 0 0 1-.67-.26C24.48 47.06 21 40.21 21 32.89c0-12.5 9.93-21.79 10.35-22.18a1 1 0 0 1 1.08-.18 1 1 0 0 1 .6.91v41.05a1 1 0 0 1-.59.91 1 1 0 0 1-.44.09zM31 14c-2.79 3.18-8.07 10.36-8 19 0 6 2.7 11.81 8 17.16z" class="cls-1"/><path d="M32 53.49a1 1 0 0 1-.41-.09 1 1 0 0 1-.59-.91V11.44a1 1 0 0 1 .6-.91 1 1 0 0 1 1.08.18c.42.39 10.4 9.68 10.35 22.18 0 7.32-3.52 14.17-10.36 20.34a1 1 0 0 1-.67.26zm1-39.55v36.22c5.31-5.35 8-11.15 8-17.28.06-8.6-5.21-15.76-8-18.94z" class="cls-1"/><path d="M50.48 24h-37a1 1 0 0 1 0-2h37a1 1 0 0 1 0 2zm0 17.33h-37a1 1 0 1 1 0-2h37a1 1 0 1 1 0 2z" class="cls-1"/></symbol></svg>