<svg xmlns="http://www.w3.org/2000/svg"><symbol id="github-logo" viewBox="0 0 64 64"><defs><style>.cls-1{fill:none;stroke:#000;stroke-linecap:round;stroke-linejoin:round;stroke-width:2px;fill-rule:evenodd}.cls-2{fill:#fff}</style></defs><path d="M32 11.84a20.64 20.64 0 0 0-6.52 40.22c1 .19 1.41-.45 1.41-1v-3.85c-5.74 1.25-7-2.43-7-2.43a5.4 5.4 0 0 0-2.29-3c-1.87-1.28.14-1.26.14-1.26a4.35 4.35 0 0 1 3.17 2.13c1.84 3.16 4.83 2.24 6 1.72a4.39 4.39 0 0 1 1.31-2.76c-4.58-.52-9.4-2.29-9.4-10.2A8 8 0 0 1 21 25.86a7.38 7.38 0 0 1 .2-5.46s1.73-.56 5.67 2.11a19.71 19.71 0 0 1 10.34 0c3.94-2.67 5.67-2.11 5.67-2.11a7.38 7.38 0 0 1 .2 5.46 7.93 7.93 0 0 1 2.13 5.54c0 7.93-4.83 9.67-9.43 10.18a4.94 4.94 0 0 1 1.4 3.82v5.67c0 .67.37 1.19 1.42 1A20.64 20.64 0 0 0 32 11.84z" class="cls-1"/><path d="M19.18 41.47a.27.27 0 0 1-.36.06c-.15-.06-.23-.2-.18-.31s.21-.13.35-.06.24.21.19.31zm.82.93c-.09.09-.29.05-.42-.09s-.16-.34-.06-.43.29-.05.43.09.16.34.05.43zm.83 1.19c-.13.09-.34 0-.46-.18a.35.35 0 0 1 0-.49c.13-.09.33 0 .46.17s.13.41 0 .5zm1.11 1.15c-.11.12-.35.09-.53-.08a.33.33 0 1 1 .42-.45c.18.17.23.41.11.53zm1.54.67c-.05.16-.28.23-.51.16s-.39-.26-.34-.42.28-.24.51-.17.39.26.34.43zm1.69.12c0 .17-.19.31-.44.31a.4.4 0 0 1-.45-.3c0-.17.2-.31.44-.31s.45.13.45.3zm1.57-.27c0 .17-.14.34-.38.38s-.46 0-.49-.22.14-.34.38-.38.46.05.49.22z" class="cls-2"/></symbol><symbol id="behance-logo" viewBox="0 0 64 64"><defs><style>.cls-1{fill:none;stroke:#000;stroke-linecap:round;stroke-linejoin:round;stroke-width:2px}</style></defs><path d="M26 30.49c3.44-1.66 5.4-4.35 5.4-8.19 0-7.34-5.13-10-12.68-10H0v39.54h19.25c7.15 0 14-3.41 14-11.4 0-4.89-2.44-8.57-7.25-9.95zM8 18.94h8.92c3.12 0 6 .75 6 4.51 0 3.31-2.29 4.68-5.33 4.68H8zm10.07 26.53H8v-10.8h10.23c3.73 0 6.05 1.61 6.05 5.61s-2.75 5.19-6.21 5.19zm24.59-30.51h15.91v5.3H42.66zM50 22.62c-8.71 0-14.76 6.5-14.76 15 0 8.81 5.7 15 14.76 15 6.51 0 11.59-3.52 13.79-10.24h-6.93c-.51 1.77-3.42 4.36-6.59 4.36-4.38 0-6.83-3.18-7-8.12H64c.52-8.77-4.21-16-14-16zm-6.77 10.86c.1-2.18 1.56-5 6.56-5 3.84 0 5.56 1 6.29 5z" class="cls-1"/></symbol><symbol id="instagram-logo" viewBox="0 0 64 64"><path d="M33.36 52.84h-8.2a26.56 26.56 0 0 1-6.44-.56 9.34 9.34 0 0 1-7.22-7.91 32.35 32.35 0 0 1-.31-3.82c-.15-4.29-.11-8.64-.08-12.85v-2.65a26.49 26.49 0 0 1 .57-6.44 9.31 9.31 0 0 1 7.9-7.21 35.48 35.48 0 0 1 3.67-.4c2-.1 3.87-.09 5.53-.08h11.24a24.11 24.11 0 0 1 5.37.54 9.34 9.34 0 0 1 7.21 7.91 34.12 34.12 0 0 1 .32 3.82c.15 4.28.11 8.62.08 12.82v2.68a27.09 27.09 0 0 1-.57 6.44 9.34 9.34 0 0 1-7.9 7.21 32.18 32.18 0 0 1-3.83.31c-2.47.17-4.92.19-7.34.19zM27.28 13c-1.23 0-2.55 0-3.86.08a34 34 0 0 0-3.51.3 7.3 7.3 0 0 0-6.27 5.72 25 25 0 0 0-.51 5.9v2.7c0 4.18-.07 8.51.08 12.76a29.58 29.58 0 0 0 .27 3.54 7.33 7.33 0 0 0 5.72 6.28 25.15 25.15 0 0 0 5.94.5h2.69c4.18 0 8.51.07 12.75-.08a29.42 29.42 0 0 0 3.59-.29 7.3 7.3 0 0 0 6.27-5.72 25.52 25.52 0 0 0 .56-5.9v-2.72c0-4.17.07-8.49-.08-12.73a31.57 31.57 0 0 0-.29-3.58 7.33 7.33 0 0 0-5.73-6.28 22.06 22.06 0 0 0-4.96-.48h-1c-1.53-.05-3.09 0-4.9 0h-6.76z"/><path d="M32 42.57a10.62 10.62 0 1 1 0-21.24 10.57 10.57 0 0 1 10.6 10.61A10.57 10.57 0 0 1 32 42.57zm0-19.24a8.62 8.62 0 0 0 0 17.24 8.62 8.62 0 0 0 0-17.24zm16.07-4.49a3 3 0 1 1-3-3 3 3 0 0 1 3 3z"/></symbol><symbol id="vimeo-logo" viewBox="0 0 64 64"><defs><style>.cls-1{fill:none;stroke:#000;stroke-linecap:round;stroke-linejoin:round;stroke-width:2px}</style></defs><path d="M37.38 21.79q5.31 0 4.11 4.87a23.61 23.61 0 0 1-5.68 10c-1.59 1.8-2.81 1.54-3.94-.66a25 25 0 0 1-2-6.68c-.78-4-1.26-8.15-2.32-12.11-1.28-4.75-4.9-5.93-9-3.21-3.25 2.16-6 5-8.88 7.53a1.54 1.54 0 0 0-.2 2.47c.7.91 1.32.75 2.2.27 2.91-1.6 3.89-1.27 5.33 1.82a27.42 27.42 0 0 1 1.51 4.15c1.28 4.48 2.46 9 3.72 13.47a15.7 15.7 0 0 0 3.24 6.39 5 5 0 0 0 5.65 1.65 18.56 18.56 0 0 0 7.57-4.86 74.8 74.8 0 0 0 13.11-17.5 20 20 0 0 0 2.66-8.15c.45-6.23-2.3-10.49-9.58-9-4.31.88-6.85 3.7-8.65 7.45-.69 1.42-1.1 2.64 1.15 2.1z" class="cls-1"/></symbol><symbol id="linkedin-logo" viewBox="0 0 64 64"><defs><style>.cls-1{fill:none;stroke:#000;stroke-linecap:round;stroke-linejoin:round;stroke-width:2px}</style></defs><path id="linkedin-linkedin" d="M12.45 25.29h8.38v27h-8.38zm4.19-13.4a4.86 4.86 0 1 1-4.86 4.86 4.87 4.87 0 0 1 4.86-4.86m9.45 13.4h8V29h.12a8.81 8.81 0 0 1 7.93-4.36c8.48 0 10 5.58 10 12.84v14.77h-8.3V39.14c0-3.13-.05-7.15-4.35-7.15s-5 3.41-5 6.93v13.33h-8.4z" class="cls-1"/></symbol></svg>