<svg xmlns="http://www.w3.org/2000/svg"><symbol id="instagram-logo" viewBox="0 0 64 64"><path d="M34.09 63.85c-2.84 0-5.67 0-8.45-.05h-4.05a40.4 40.4 0 0 1-9.81-.87 14.19 14.19 0 0 1-11-12A50.46 50.46 0 0 1 .31 45C.09 38.5.14 31.88.19 25.47v-4a40.26 40.26 0 0 1 .87-9.81 14.18 14.18 0 0 1 12-11 51.09 51.09 0 0 1 5.63-.5C21.71 0 24.58 0 27.11 0h17.05a37.12 37.12 0 0 1 8.18.83 14.2 14.2 0 0 1 11 12 47.53 47.53 0 0 1 .48 5.83c.23 6.52.18 13.13.12 19.52v4.08a40.8 40.8 0 0 1-.86 9.81 14.21 14.21 0 0 1-12 11 49.59 49.59 0 0 1-5.83.48c-3.75.26-7.47.3-11.16.3zM24.83 3.08c-1.88 0-3.89 0-5.89.12a49 49 0 0 0-5.35.45A11.12 11.12 0 0 0 4 12.37a38.21 38.21 0 0 0-.77 9v4.12c-.05 6.37-.11 13 .12 19.43a45.24 45.24 0 0 0 .45 5.48 11.13 11.13 0 0 0 8.72 9.6 38.06 38.06 0 0 0 9.05.77h4.09c6.38.06 13 .11 19.42-.12a46.66 46.66 0 0 0 5.47-.44 11.13 11.13 0 0 0 9.55-8.72 37.86 37.86 0 0 0 .78-9v-4.15c.05-6.36.1-12.93-.12-19.38a46.7 46.7 0 0 0-.45-5.47 11.14 11.14 0 0 0-8.72-9.56 33.49 33.49 0 0 0-7.5-.73h-1.55c-2.3-.2-4.68-.2-7.44-.14h-8z"/><path d="M32.06 48.19a16.18 16.18 0 1 1 0-32.36A16.12 16.12 0 0 1 48.26 32a16.1 16.1 0 0 1-16.2 16.19zm0-29.31a13.13 13.13 0 0 0 0 26.26 13.13 13.13 0 1 0 0-26.26zM56.49 12a4.56 4.56 0 0 1-9.11 0 4.56 4.56 0 1 1 9.11 0z"/></symbol><symbol id="facebook-icon" viewBox="0 0 64 64"><path d="M36.83 64h-11.3A1.52 1.52 0 0 1 24 62.48V36.19h-7.91a1.51 1.51 0 0 1-1.51-1.52V23.83a1.51 1.51 0 0 1 1.51-1.51H24v-6.48C24 6.07 30 0 39.6 0a81.08 81.08 0 0 1 8.64.44 1.51 1.51 0 0 1 1.31 1.5v9.7A1.51 1.51 0 0 1 48 13.15h-5.75c-3.36 0-3.91 1.11-3.91 3.76v5.41h9.32a1.54 1.54 0 0 1 1.14.51 1.51 1.51 0 0 1 .36 1.2l-1.41 10.84a1.52 1.52 0 0 1-1.5 1.32h-7.91v26.29A1.51 1.51 0 0 1 36.83 64zm-9.78-3h8.26V34.67a1.52 1.52 0 0 1 1.52-1.51h8.09l1-7.81h-9.1a1.52 1.52 0 0 1-1.52-1.52v-6.92c0-2.91.72-6.79 6.94-6.79h4.27V3.31C45 3.18 42.41 3 39.6 3c-7.86 0-12.55 4.82-12.55 12.84v8a1.52 1.52 0 0 1-1.52 1.52h-7.92v7.81h7.92a1.52 1.52 0 0 1 1.52 1.51z"/></symbol><symbol id="github-logo" viewBox="0 0 64 64"><defs><style>.cls-1{fill:#fff}</style></defs><path d="M38.16 53.09a2.05 2.05 0 0 1-1.33-.45 2 2 0 0 1-.71-1.57V45.4a3.85 3.85 0 0 0-1-3.06 1 1 0 0 1 .54-1.75c4.22-.47 8.54-1.93 8.54-9.19a7 7 0 0 0-1.87-4.87 1 1 0 0 1-.18-1.05 6.26 6.26 0 0 0 0-4.12 10.34 10.34 0 0 0-4.39 2 1 1 0 0 1-.83.14 18.52 18.52 0 0 0-9.8 0 1 1 0 0 1-.83-.14 10.28 10.28 0 0 0-4.39-2 6.27 6.27 0 0 0 0 4.12 1 1 0 0 1-.18 1.05 7 7 0 0 0-1.87 4.87c0 7.26 4.31 8.72 8.52 9.2a1 1 0 0 1 .84.7 1 1 0 0 1-.3 1.05 3.36 3.36 0 0 0-1 2.15 1 1 0 0 1-.58.77c-1 .46-4.33 1.61-6.65-1.22l.16.37c.05.16 1.08 2.85 5.8 1.83a1 1 0 0 1 .84.19 1 1 0 0 1 .38.78v3.85a2 2 0 0 1-.71 1.56 2.19 2.19 0 0 1-1.89.41h-.13a21.65 21.65 0 1 1 13.69 0h-.12a2.93 2.93 0 0 1-.55.05zm.38-1zm-12.82-1a.47.47 0 0 0 .2 0 12.58 12.58 0 0 1 0-1.27v-1.4c-5.55.67-6.9-3.27-6.92-3.31a4.53 4.53 0 0 0-1.78-2.43l-.12-.08c-.41-.28-1.51-1-1.18-2.06s1.41-1 1.9-1a5.36 5.36 0 0 1 4 2.65A3.24 3.24 0 0 0 26 43.64a6.1 6.1 0 0 1 .43-1.29c-4.1-.78-8.64-3.05-8.64-11a8.89 8.89 0 0 1 2-5.76 8.71 8.71 0 0 1 .4-5.61 1 1 0 0 1 .62-.59c.36-.11 2.28-.53 6.16 2a20.71 20.71 0 0 1 10 0c3.87-2.52 5.8-2.1 6.15-2a1 1 0 0 1 .63.59 8.71 8.71 0 0 1 .4 5.61 8.89 8.89 0 0 1 2 5.76c0 7.9-4.55 10.17-8.66 10.93a7.22 7.22 0 0 1 .63 3.07v5.67h.17a19.63 19.63 0 1 0-12.57 0z"/><path d="M19.18 41.47a.27.27 0 0 1-.36.06c-.15-.06-.23-.2-.18-.31s.21-.13.35-.06.24.21.19.31zm.82.93c-.09.09-.29.05-.42-.09s-.16-.34-.06-.43.29-.05.43.09.16.34.05.43zm.83 1.19c-.13.09-.34 0-.46-.18a.35.35 0 0 1 0-.49c.13-.09.33 0 .46.17s.13.41 0 .5zm1.11 1.15c-.11.12-.35.09-.53-.08a.33.33 0 1 1 .42-.45c.18.17.23.41.11.53zm1.54.67c-.05.16-.28.23-.51.16s-.39-.26-.34-.42.28-.24.51-.17.39.26.34.43zm1.69.12c0 .17-.19.31-.44.31a.4.4 0 0 1-.45-.3c0-.17.2-.31.44-.31s.45.13.45.3zm1.57-.27c0 .17-.14.34-.38.38s-.46 0-.49-.22.14-.34.38-.38.46.05.49.22z" class="cls-1"/></symbol><symbol id="behance-logo" viewBox="0 0 64 64"><path d="M19.33 52H1a1 1 0 0 1-1-1V13.26a1 1 0 0 1 1-.95h17.8c10.79 0 13.05 5.7 13.05 10.49A9 9 0 0 1 28 30.44c3.65 1.75 5.7 5.18 5.7 9.68C33.65 48.85 25.94 52 19.33 52zM1.92 50h17.41c6 0 12.41-2.61 12.41-9.92 0-4.39-2.22-7.43-6.25-8.58a.94.94 0 0 1-.69-.83.93.93 0 0 1 .53-.94C28.44 28.26 30 26 30 22.8c0-5.8-3.7-8.59-11.2-8.59H1.92zm16.28-4.13H8.59a1 1 0 0 1-1-1V34.6a1 1 0 0 1 1-1h9.77c5.56 0 6.72 3.43 6.72 6.32 0 3.96-2.31 5.95-6.88 5.95zM9.54 44h8.66c3.49 0 5-1.19 5-4 0-3-1.49-4.41-4.82-4.41H9.54zm8.2-14.64H8.59a1 1 0 0 1-1-.95V19.6a1 1 0 0 1 1-1h8.51c4.43 0 6.68 1.77 6.68 5.27s-2.26 5.45-6.04 5.45zm-8.2-1.91h8.2c2.74 0 4.13-1.18 4.13-3.5s-1.38-3.36-4.77-3.36H9.54zm47.32-5.64H41.68a1 1 0 0 1-1-1V15.8a1 1 0 0 1 1-1h15.18a.94.94 0 0 1 1 1v5.05a1 1 0 0 1-1 .96zM42.63 19.9H55.9v-3.14H42.63z"/><path d="M48.68 52.69c-9 0-15-6.12-15-15.24 0-8.86 6.32-15.29 15-15.29a13.93 13.93 0 0 1 10.48 4.13c2.75 2.94 4.1 7.25 3.78 12.15a1 1 0 0 1-.95.89H43.25c.3 2.53 1.5 5.84 5.69 5.84a6.32 6.32 0 0 0 5.36-3.47 1 1 0 0 1 .92-.69h6.62a1 1 0 0 1 .77.4.92.92 0 0 1 .13.85c-2.17 6.63-7.3 10.43-14.06 10.43zm0-28.63c-7.61 0-13.13 5.63-13.13 13.39 0 8.1 5.15 13.34 13.13 13.34a12.07 12.07 0 0 0 11.79-7.87h-4.62a8.4 8.4 0 0 1-6.91 4.16c-4.58 0-7.45-3.24-7.68-8.66a.94.94 0 0 1 .26-.7 1 1 0 0 1 .69-.3h18.87a13.82 13.82 0 0 0-3.31-9.83 12.11 12.11 0 0 0-9.09-3.53zm5.79 10.37H42.21a1 1 0 0 1-1-1c.13-2.74 2.1-5.66 7.21-5.66 3.66 0 6.1.93 6.94 5.53a.94.94 0 0 1-.2.78 1 1 0 0 1-.69.35zm-11.13-1.91h9.94c-.65-2.2-1.86-2.84-4.81-2.84-3.54 0-4.74 1.58-5.13 2.84z"/></symbol><symbol id="calendar-icon" viewBox="0 0 64 64"><path d="M62.62 28.28H2.25a1.56 1.56 0 0 1 0-3.1h60.37a1.56 1.56 0 0 1 0 3.1zm-46.97-9.4h-1.36a3.08 3.08 0 0 1-2.9-3.24V4.51a3.09 3.09 0 0 1 2.9-3.25h1.36a3.09 3.09 0 0 1 2.9 3.25v11.13a3.08 3.08 0 0 1-2.9 3.24zM14.29 4.36a.14.14 0 0 0-.13.15v11.13a.13.13 0 0 0 .13.14h1.36a.13.13 0 0 0 .13-.14V4.51a.14.14 0 0 0-.13-.15zM50.1 18.88h-1.36a3.08 3.08 0 0 1-2.9-3.24V4.51a3.09 3.09 0 0 1 2.9-3.25h1.36A3.09 3.09 0 0 1 53 4.51v11.13a3.08 3.08 0 0 1-2.9 3.24zM48.74 4.36a.14.14 0 0 0-.13.15v11.13a.13.13 0 0 0 .13.14h1.36a.13.13 0 0 0 .13-.14V4.51a.14.14 0 0 0-.13-.15z"/><path d="M47.23 15.61H17.16a1.48 1.48 0 0 1-1.38-1.55 1.47 1.47 0 0 1 1.38-1.55h30.07a1.47 1.47 0 0 1 1.38 1.55 1.48 1.48 0 0 1-1.38 1.55z"/><path d="M55.52 64H2.25a1.47 1.47 0 0 1-1.39-1.55V14.06a1.47 1.47 0 0 1 1.39-1.55h10.53a1.47 1.47 0 0 1 1.38 1.55 1.48 1.48 0 0 1-1.38 1.55H3.63V60.9h49.94l-4.14-13.47a1.68 1.68 0 0 1 .18-1.4 1.34 1.34 0 0 1 1.12-.65h10.5V15.61h-9.62a1.48 1.48 0 0 1-1.38-1.55 1.47 1.47 0 0 1 1.38-1.55h11A1.47 1.47 0 0 1 64 14.06v32.87a1.48 1.48 0 0 1-1.38 1.55h-9.94l4.14 13.46a1.7 1.7 0 0 1-.18 1.41 1.34 1.34 0 0 1-1.12.65z"/><path d="M55.51 64a1.25 1.25 0 0 1-.63-.17 1.65 1.65 0 0 1-.59-2.09l7.1-15.52a1.31 1.31 0 0 1 1.86-.67 1.63 1.63 0 0 1 .6 2.08l-7.1 15.53a1.39 1.39 0 0 1-1.24.84z"/></symbol><symbol id="linkedin-logo" viewBox="0 0 64 64"><path d="M20.83 53.25h-8.38a1 1 0 0 1-1-1v-27a1 1 0 0 1 1-1h8.38a1 1 0 0 1 1 1v27a1 1 0 0 1-1 1zm-7.38-2h6.38v-25h-6.38zm3.19-28.64a5.86 5.86 0 1 1 5.86-5.86 5.87 5.87 0 0 1-5.86 5.86zm0-9.72a3.86 3.86 0 1 0 3.86 3.86 3.86 3.86 0 0 0-3.86-3.86zm35.58 40.36h-8.38a1 1 0 0 1-1-1V39.14c0-4.17-.5-6.15-3.35-6.15s-4 1.66-4 5.93v13.33a1 1 0 0 1-1 1h-8.4a1 1 0 0 1-1-1v-27a1 1 0 0 1 1-1h8a1 1 0 0 1 1 1v1a10.26 10.26 0 0 1 7.05-2.64c9.73 0 11 7 11 13.84v14.8a1 1 0 0 1-.92 1zm-7.38-2h6.38V37.46c0-7.31-1.52-11.84-9-11.84a7.84 7.84 0 0 0-7.05 3.82 1 1 0 0 1-.88.54h-.12a1 1 0 0 1-1-1v-2.69h-6v25h6.37V38.92c0-2.17 0-7.93 6-7.93 5.35 0 5.35 5.3 5.35 8.15z"/></symbol><symbol id="vimeo-logo" viewBox="0 0 64 64"><path d="M29.35 53a6.06 6.06 0 0 1-4.63-2.27 16.66 16.66 0 0 1-3.46-6.79q-.84-3-1.66-6-1-3.73-2.05-7.44a27.28 27.28 0 0 0-1.46-4c-.61-1.32-1.1-2-1.53-2.15s-1.19.12-2.41.79a2.42 2.42 0 0 1-3.47-.54A2.51 2.51 0 0 1 9 20.8c.74-.66 1.47-1.34 2.2-2a56.23 56.23 0 0 1 6.8-5.62c2.35-1.56 4.62-2 6.56-1.27 1.32.5 3.07 1.78 4 5.05.72 2.67 1.17 5.42 1.62 8.09.23 1.36.46 2.73.72 4.09a24.05 24.05 0 0 0 1.89 6.42c.58 1.14 1 1.28 1.09 1.29s.48 0 1.21-.82a22.5 22.5 0 0 0 5.46-9.61 3.23 3.23 0 0 0-.19-2.75c-.56-.71-1.83-.87-2.84-.88-.58.13-1.8.36-2.46-.47s-.11-2.21.3-3.07c2.2-4.61 5.17-7.15 9.35-8 3.5-.71 6.24-.22 8.15 1.45s2.91 4.74 2.62 8.61a20.77 20.77 0 0 1-2.77 8.56 76.21 76.21 0 0 1-13.32 17.69 19.4 19.4 0 0 1-8 5.11 7 7 0 0 1-2.04.33zm-15-30.71a2.93 2.93 0 0 1 .88.13c1.21.4 2 1.57 2.73 3.21a29.8 29.8 0 0 1 1.57 4.3q1.05 3.72 2.05 7.45.82 3 1.66 6a14.67 14.67 0 0 0 3 6 4 4 0 0 0 4.62 1.36 17.37 17.37 0 0 0 7.14-4.6A74.23 74.23 0 0 0 50.92 28.9a19 19 0 0 0 2.54-7.73c.16-2.25 0-5.28-2-7-1.41-1.25-3.58-1.58-6.44-1-3.5.72-6 2.91-7.94 6.9-.16.35-.27.6-.34.78l.35-.07a1 1 0 0 1 .3 0c2.1 0 3.6.55 4.46 1.65s1 2.56.56 4.45a24.29 24.29 0 0 1-5.91 10.47 3.44 3.44 0 0 1-3 1.48c-1-.14-1.87-.91-2.61-2.38a25.21 25.21 0 0 1-2.07-6.94c-.27-1.37-.5-2.76-.73-4.14-.44-2.62-.89-5.33-1.58-7.9-.52-1.94-1.46-3.22-2.73-3.7s-3-.13-4.74 1.06a54.85 54.85 0 0 0-6.54 5.42c-.74.68-1.48 1.37-2.23 2-.47.41-.48.55-.09 1.06a.94.94 0 0 0 .27.27s.15 0 .64-.26a6.87 6.87 0 0 1 3.21-1.03z"/></symbol></svg>