<svg xmlns="http://www.w3.org/2000/svg"><symbol id="behance-logo" viewBox="0 0 64 64"><path d="M19.25 52.84H0a1 1 0 0 1-1-1V12.3a1 1 0 0 1 1-1h18.69c11.31 0 13.68 6 13.68 11a9.43 9.43 0 0 1-4.09 8c3.82 1.84 6 5.43 6 10.14-.03 9.16-8.11 12.4-15.03 12.4zM1 50.84h18.25c6.29 0 13-2.73 13-10.4 0-4.59-2.32-7.78-6.55-9a1 1 0 0 1-.72-.88 1 1 0 0 1 .56-1c3.25-1.58 4.83-4 4.83-7.3 0-6.06-3.82-9-11.68-9H1zm17.07-4.37H8a1 1 0 0 1-1-1v-10.8a1 1 0 0 1 1-1h10.23c5.82 0 7.05 3.59 7.05 6.61 0 4.11-2.43 6.19-7.21 6.19zm-9.07-2h9.08c3.65 0 5.21-1.25 5.21-4.19 0-3.19-1.56-4.61-5.05-4.61H9zm8.59-15.34H8a1 1 0 0 1-1-1v-9.19a1 1 0 0 1 1-1h8.92c4.64 0 7 1.85 7 5.51s-2.38 5.68-6.34 5.68zm-8.59-2h8.59c2.87 0 4.33-1.24 4.33-3.68s-1.45-3.51-5-3.51H9zm49.58-5.88H42.66a1 1 0 0 1-1-1V15a1 1 0 0 1 1-1h15.92a1 1 0 0 1 1 1v5.29a1 1 0 0 1-1 .96zm-14.92-2h13.92V16H43.66z"/><path d="M50 53.62c-9.42 0-15.76-6.42-15.76-16 0-9.29 6.63-16 15.76-16A14.61 14.61 0 0 1 61 26c2.88 3.08 4.29 7.6 4 12.73a1 1 0 0 1-1 .94H44.31c.32 2.65 1.58 6.12 6 6.12 2.8 0 5.27-2.39 5.63-3.64a1 1 0 0 1 1-.72h6.93a1 1 0 0 1 .81.41 1 1 0 0 1 .14.9c-2.35 6.9-7.73 10.88-14.82 10.88zm0-30c-8 0-13.76 5.9-13.76 14 0 8.49 5.4 14 13.76 14a12.65 12.65 0 0 0 12.36-8.24h-4.84a8.81 8.81 0 0 1-7.25 4.36c-4.79 0-7.8-3.4-8-9.08a1 1 0 0 1 .27-.73 1 1 0 0 1 .73-.31H63a14.43 14.43 0 0 0-3.47-10.3 12.66 12.66 0 0 0-9.53-3.7zm6.08 10.86H43.23a1 1 0 0 1-.73-.31 1 1 0 0 1-.27-.74c.14-2.86 2.2-5.92 7.56-5.92 3.83 0 6.39 1 7.27 5.79a1 1 0 0 1-.21.82 1 1 0 0 1-.77.36zm-11.67-2h10.41c-.67-2.3-1.94-3-5-3-3.75.03-5 1.68-5.41 3z"/></symbol><symbol id="linkedin-logo" viewBox="0 0 64 64"><path d="M20.83 53.25h-8.38a1 1 0 0 1-1-1v-27a1 1 0 0 1 1-1h8.38a1 1 0 0 1 1 1v27a1 1 0 0 1-1 1zm-7.38-2h6.38v-25h-6.38zm3.19-28.64a5.86 5.86 0 1 1 5.86-5.86 5.87 5.87 0 0 1-5.86 5.86zm0-9.72a3.86 3.86 0 1 0 3.86 3.86 3.86 3.86 0 0 0-3.86-3.86zm35.58 40.36h-8.38a1 1 0 0 1-1-1V39.14c0-4.17-.5-6.15-3.35-6.15s-4 1.66-4 5.93v13.33a1 1 0 0 1-1 1h-8.4a1 1 0 0 1-1-1v-27a1 1 0 0 1 1-1h8a1 1 0 0 1 1 1v1a10.26 10.26 0 0 1 7.05-2.64c9.73 0 11 7 11 13.84v14.8a1 1 0 0 1-.92 1zm-7.38-2h6.38V37.46c0-7.31-1.52-11.84-9-11.84a7.84 7.84 0 0 0-7.05 3.82 1 1 0 0 1-.88.54h-.12a1 1 0 0 1-1-1v-2.69h-6v25h6.37V38.92c0-2.17 0-7.93 6-7.93 5.35 0 5.35 5.3 5.35 8.15z"/></symbol><symbol id="instagram-logo" viewBox="0 0 64 64"><path d="M33.36 52.84h-8.2a26.56 26.56 0 0 1-6.44-.56 9.34 9.34 0 0 1-7.22-7.91 32.35 32.35 0 0 1-.31-3.82c-.15-4.29-.11-8.64-.08-12.85v-2.65a26.49 26.49 0 0 1 .57-6.44 9.31 9.31 0 0 1 7.9-7.21 35.48 35.48 0 0 1 3.67-.4c2-.1 3.87-.09 5.53-.08h11.24a24.11 24.11 0 0 1 5.37.54 9.34 9.34 0 0 1 7.21 7.91 34.12 34.12 0 0 1 .32 3.82c.15 4.28.11 8.62.08 12.82v2.68a27.09 27.09 0 0 1-.57 6.44 9.34 9.34 0 0 1-7.9 7.21 32.18 32.18 0 0 1-3.83.31c-2.47.17-4.92.19-7.34.19zM27.28 13c-1.23 0-2.55 0-3.86.08a34 34 0 0 0-3.51.3 7.3 7.3 0 0 0-6.27 5.72 25 25 0 0 0-.51 5.9v2.7c0 4.18-.07 8.51.08 12.76a29.58 29.58 0 0 0 .27 3.54 7.33 7.33 0 0 0 5.72 6.28 25.15 25.15 0 0 0 5.94.5h2.69c4.18 0 8.51.07 12.75-.08a29.42 29.42 0 0 0 3.59-.29 7.3 7.3 0 0 0 6.27-5.72 25.52 25.52 0 0 0 .56-5.9v-2.72c0-4.17.07-8.49-.08-12.73a31.57 31.57 0 0 0-.29-3.58 7.33 7.33 0 0 0-5.73-6.28 22.06 22.06 0 0 0-4.96-.48h-1c-1.53-.05-3.09 0-4.9 0h-6.76z"/><path d="M32 42.57a10.62 10.62 0 1 1 0-21.24 10.57 10.57 0 0 1 10.6 10.61A10.57 10.57 0 0 1 32 42.57zm0-19.24a8.62 8.62 0 0 0 0 17.24 8.62 8.62 0 0 0 0-17.24zm16.07-4.49a3 3 0 1 1-3-3 3 3 0 0 1 3 3z"/></symbol><symbol id="vimeo-logo" viewBox="0 0 64 64"><path d="M29.35 53a6.06 6.06 0 0 1-4.63-2.27 16.66 16.66 0 0 1-3.46-6.79q-.84-3-1.66-6-1-3.73-2.05-7.44a27.28 27.28 0 0 0-1.46-4c-.61-1.32-1.1-2-1.53-2.15s-1.19.12-2.41.79a2.42 2.42 0 0 1-3.47-.54A2.51 2.51 0 0 1 9 20.8c.74-.66 1.47-1.34 2.2-2a56.23 56.23 0 0 1 6.8-5.62c2.35-1.56 4.62-2 6.56-1.27 1.32.5 3.07 1.78 4 5.05.72 2.67 1.17 5.42 1.62 8.09.23 1.36.46 2.73.72 4.09a24.05 24.05 0 0 0 1.89 6.42c.58 1.14 1 1.28 1.09 1.29s.48 0 1.21-.82a22.5 22.5 0 0 0 5.46-9.61 3.23 3.23 0 0 0-.19-2.75c-.56-.71-1.83-.87-2.84-.88-.58.13-1.8.36-2.46-.47s-.11-2.21.3-3.07c2.2-4.61 5.17-7.15 9.35-8 3.5-.71 6.24-.22 8.15 1.45s2.91 4.74 2.62 8.61a20.77 20.77 0 0 1-2.77 8.56 76.21 76.21 0 0 1-13.32 17.69 19.4 19.4 0 0 1-8 5.11 7 7 0 0 1-2.04.33zm-15-30.71a2.93 2.93 0 0 1 .88.13c1.21.4 2 1.57 2.73 3.21a29.8 29.8 0 0 1 1.57 4.3q1.05 3.72 2.05 7.45.82 3 1.66 6a14.67 14.67 0 0 0 3 6 4 4 0 0 0 4.62 1.36 17.37 17.37 0 0 0 7.14-4.6A74.23 74.23 0 0 0 50.92 28.9a19 19 0 0 0 2.54-7.73c.16-2.25 0-5.28-2-7-1.41-1.25-3.58-1.58-6.44-1-3.5.72-6 2.91-7.94 6.9-.16.35-.27.6-.34.78l.35-.07a1 1 0 0 1 .3 0c2.1 0 3.6.55 4.46 1.65s1 2.56.56 4.45a24.29 24.29 0 0 1-5.91 10.47 3.44 3.44 0 0 1-3 1.48c-1-.14-1.87-.91-2.61-2.38a25.21 25.21 0 0 1-2.07-6.94c-.27-1.37-.5-2.76-.73-4.14-.44-2.62-.89-5.33-1.58-7.9-.52-1.94-1.46-3.22-2.73-3.7s-3-.13-4.74 1.06a54.85 54.85 0 0 0-6.54 5.42c-.74.68-1.48 1.37-2.23 2-.47.41-.48.55-.09 1.06a.94.94 0 0 0 .27.27s.15 0 .64-.26a6.87 6.87 0 0 1 3.21-1.03z"/></symbol><symbol id="github-logo" viewBox="0 0 64 64"><defs><style>.cls-1{fill:#fff}</style></defs><path d="M38.16 53.09a2.05 2.05 0 0 1-1.33-.45 2 2 0 0 1-.71-1.57V45.4a3.85 3.85 0 0 0-1-3.06 1 1 0 0 1 .54-1.75c4.22-.47 8.54-1.93 8.54-9.19a7 7 0 0 0-1.87-4.87 1 1 0 0 1-.18-1.05 6.26 6.26 0 0 0 0-4.12 10.34 10.34 0 0 0-4.39 2 1 1 0 0 1-.83.14 18.52 18.52 0 0 0-9.8 0 1 1 0 0 1-.83-.14 10.28 10.28 0 0 0-4.39-2 6.27 6.27 0 0 0 0 4.12 1 1 0 0 1-.18 1.05 7 7 0 0 0-1.87 4.87c0 7.26 4.31 8.72 8.52 9.2a1 1 0 0 1 .84.7 1 1 0 0 1-.3 1.05 3.36 3.36 0 0 0-1 2.15 1 1 0 0 1-.58.77c-1 .46-4.33 1.61-6.65-1.22l.16.37c.05.16 1.08 2.85 5.8 1.83a1 1 0 0 1 .84.19 1 1 0 0 1 .38.78v3.85a2 2 0 0 1-.71 1.56 2.19 2.19 0 0 1-1.89.41h-.13a21.65 21.65 0 1 1 13.69 0h-.12a2.93 2.93 0 0 1-.55.05zm.38-1zm-12.82-1a.47.47 0 0 0 .2 0 12.58 12.58 0 0 1 0-1.27v-1.4c-5.55.67-6.9-3.27-6.92-3.31a4.53 4.53 0 0 0-1.78-2.43l-.12-.08c-.41-.28-1.51-1-1.18-2.06s1.41-1 1.9-1a5.36 5.36 0 0 1 4 2.65A3.24 3.24 0 0 0 26 43.64a6.1 6.1 0 0 1 .43-1.29c-4.1-.78-8.64-3.05-8.64-11a8.89 8.89 0 0 1 2-5.76 8.71 8.71 0 0 1 .4-5.61 1 1 0 0 1 .62-.59c.36-.11 2.28-.53 6.16 2a20.71 20.71 0 0 1 10 0c3.87-2.52 5.8-2.1 6.15-2a1 1 0 0 1 .63.59 8.71 8.71 0 0 1 .4 5.61 8.89 8.89 0 0 1 2 5.76c0 7.9-4.55 10.17-8.66 10.93a7.22 7.22 0 0 1 .63 3.07v5.67h.17a19.63 19.63 0 1 0-12.57 0z"/><path d="M19.18 41.47a.27.27 0 0 1-.36.06c-.15-.06-.23-.2-.18-.31s.21-.13.35-.06.24.21.19.31zm.82.93c-.09.09-.29.05-.42-.09s-.16-.34-.06-.43.29-.05.43.09.16.34.05.43zm.83 1.19c-.13.09-.34 0-.46-.18a.35.35 0 0 1 0-.49c.13-.09.33 0 .46.17s.13.41 0 .5zm1.11 1.15c-.11.12-.35.09-.53-.08a.33.33 0 1 1 .42-.45c.18.17.23.41.11.53zm1.54.67c-.05.16-.28.23-.51.16s-.39-.26-.34-.42.28-.24.51-.17.39.26.34.43zm1.69.12c0 .17-.19.31-.44.31a.4.4 0 0 1-.45-.3c0-.17.2-.31.44-.31s.45.13.45.3zm1.57-.27c0 .17-.14.34-.38.38s-.46 0-.49-.22.14-.34.38-.38.46.05.49.22z" class="cls-1"/></symbol></svg>