<svg xmlns="http://www.w3.org/2000/svg" width="71.107" height="71.106" viewBox="0 0 71.107 71.106">
  <g id="Group_164" data-name="Group 164" transform="translate(-924.972 -3958)">
    <g id="Group_2" data-name="Group 2" transform="translate(629.21 3679.93)">
      <path id="Path_2" data-name="Path 2" d="M297.281,279.589v68.069H365.35V279.589Zm50.84,40.926c-.06.377-.145.753-.17,1.136a8.857,8.857,0,0,1-6.87,8.28c-.942.225-1.914.334-2.874.492H324.429c-.382-.054-.765-.139-1.148-.164a8.827,8.827,0,0,1-8.116-6.318,32.657,32.657,0,0,1-.65-3.262V306.567c.055-.352.14-.7.164-1.057a8.891,8.891,0,0,1,6.543-8.134,30.083,30.083,0,0,1,3.037-.553h14.118c.328.055.65.134.978.158a8.861,8.861,0,0,1,8.293,6.968c.224.911.315,1.859.473,2.782Z" fill="none" stroke="#25adcd" stroke-miterlimit="10" stroke-width="3.037"/>
    </g>
    <g id="Group_3" data-name="Group 3" transform="translate(629.21 3679.93)">
      <path id="Path_3" data-name="Path 3" d="M342.314,304.678a2.067,2.067,0,0,1-2.041,2.029,2.119,2.119,0,0,1-2.048-2.114,2.068,2.068,0,0,1,2.1-1.974A2.035,2.035,0,0,1,342.314,304.678Z" fill="#25adcd"/>
    </g>
    <g id="Group_4" data-name="Group 4" transform="translate(629.21 3679.93)">
      <path id="Path_4" data-name="Path 4" d="M331.294,304.963a8.651,8.651,0,1,0,8.663,8.633A8.667,8.667,0,0,0,331.294,304.963Zm.042,14.216a5.559,5.559,0,1,1,5.535-5.541A5.516,5.516,0,0,1,331.336,319.179Z" fill="#25adcd"/>
    </g>
  </g>
</svg>
