<svg xmlns="http://www.w3.org/2000/svg" width="1341.6" height="174.6" viewBox="0 0 1341.6 174.6"><path fill="#010029" d="M382.9 24.9h65.5c29.4 0 45.5 19.9 45.5 43.6s-16.1 43-45.5 43h-31.8v44.4h-33.7zm61 28.5h-27.3v29.4h27.3c9 0 15.7-5.7 15.7-14.5s-6.7-14.9-15.7-14.9zm124.6 91.5c-7.8 9-17.4 13.3-28 13.3-23.4 0-42-17.7-42-49.8s18.2-49.7 42-49.7a34.8 34.8 0 0 1 28 13.5V61.1h30.1v94.8h-30.1zm0-50.9c-3.9-5.1-11.8-8.4-18.2-8.4-12 0-20.8 8.6-20.8 22.8s8.8 23.1 20.8 23.1c6.4 0 14.3-3.5 18.2-8.6zm58.5 36.3V87.4h-15.7V61.1H627v-26h30v26h19.3v26.3H657v34.5c0 5.5 3.2 9.6 8.5 9.6 3.3 0 6.7-1.2 7.6-2.3l5.9 22.7c-3.7 3.6-11.2 6.3-22.4 6.3-19.2 0-29.6-9.6-29.6-27.9zm128.8-29.6c0-11.6-6.1-15.3-15.7-15.3s-14.8 4.9-18.3 9.2v61.3h-30.2v-131h30.2v47.7c5.7-6.6 16.9-13.9 32.8-13.9 21.6 0 31.4 12.2 31.4 29.6v67.6h-30.2z"/><path fill="#010029" d="M879.6 99.7h35.3v6.24h-35.3zm-65.5 12.5h35.3v6.24h-35.3zm65.5 0h35.3v6.24h-35.3zm-65.5 12.5h35.3v6.24h-35.3zm65.5 0h35.3v6.24h-35.3zm-65.5-37.4h35.3v6.24h-35.3zm0 12.4h35.3v6.24h-35.3zm65.5 49.9h35.3v6.24h-35.3zm-11-68.6V61.1h-19.2v-4.4c0-4.3 3.7-7.6 8.4-7.6a14 14 0 0 1 7.9 2.5l6.5-23.9c-5.2-2.8-13-4.7-22-4.7-21 0-36.1 14.1-36.1 33.7v4.4h-15.7V81zm-54.5 68.6h35.3v6.24h-35.3zm0-12.5h35.3v6.24h-35.3zm65.5 0h35.3v6.24h-35.3zm0-76h35.3v19.97h-35.3zm0 26.2h35.3v6.24h-35.3zm55 24.9h35.3v6.24h-35.3zm99.5-6.2v-6.3h-35.9a17.4 17.4 0 0 1 .5 4.7v1.6zm-99.5 18.7h35.3v6.24h-35.3zm0-25h35.3v6.24h-35.3zm64.1 25h35.3v6.24h-35.3zm34.6-43.7c-2.6-12.8-12.3-22.3-30.8-22.3-16.7 0-27.1 6.9-32.6 13.1V61.1h-35.3V81zm-98.7 68.6h35.3v6.24h-35.3zm92 0h-27.9v6.3h35.4v-6.3h-7.5zm-92-56.1h41.6a15.8 15.8 0 0 1 8.8-2.6c3.9 0 7.1.8 9.4 2.6h39.7v-5a4.9 4.9 0 0 0-.1-1.2h-99.4zm0 43.6h35.3v6.24h-35.3zm64.1 0h35.3v6.24h-35.3zm27.9-24.9h-27.9v6.2h35.4v-6.2h-7.5zm89.1-12.5h35.3v6.24h-35.3zm-32 12.5h-36.4a59.2 59.2 0 0 0 .6 6.2h37.9a17.5 17.5 0 0 1-2.1-6.2zm-36.4-6.2h36.2a20.8 20.8 0 0 1 1.6-6.3h-37.4a62.6 62.6 0 0 0-.4 6.3zM1151 81V24.9h-35.3v46.2c-7.4-9.1-17.1-12.4-26.7-12.4-15.4 0-28.6 7.9-35.9 22.3zm0 56.1h-97.3a48.5 48.5 0 0 0 4 6.3h93.3zm-35.3-24.9h35.3v6.24h-35.3zm35.3 18.7v-6.2h-42a18.5 18.5 0 0 1-8 2.3 18 18 0 0 1-9-2.3h-43a56.1 56.1 0 0 0 1.9 6.2zm-102.2-37.4h41.2a18.1 18.1 0 0 1 11-3.6c2.9 0 6.6 1.5 9.8 3.6h40.2v-6.2h-100.5a37.4 37.4 0 0 0-1.7 6.2zm15.1 56.1a39.2 39.2 0 0 0 25.1 8.6 33.2 33.2 0 0 0 22.9-8.6zm51.8 0h35.3v6.24h-35.3zm135.5-12.5h-78.6a45.9 45.9 0 0 0 5.2 6.3h77.6zm-4.1-6.2l-3.8-5.7a36.7 36.7 0 0 1-11.9 5.7zm-78.1 0h42.7a19.6 19.6 0 0 1-8.2-6.2h-36.9a57 57 0 0 0 2.4 6.2zm88.1-49.9c-8.6-14.3-23.7-22.3-41.3-22.3-19.3 0-34.8 8.9-43.6 22.3zm-71.5 68.6c8.7 5.6 19.5 8.6 31.4 8.6s26.2-2.7 35.9-8.6zm79.2-43.6a43.4 43.4 0 0 0-.8-6.3h-99.1a44.8 44.8 0 0 0-.6 6.3zm-99.7 12.4h100v-6.2h-100.8a58.2 58.2 0 0 0 .8 6.2zm64.9-24.9h32.6a50 50 0 0 0-2.3-6.2h-36.6a13.5 13.5 0 0 1 6.3 6.2zm-61.3-6.2a46.2 46.2 0 0 0-2.3 6.2h35.4a14 14 0 0 1 6.3-6.2zm108.5 37.4h35.3v6.24h-35.3zm64.4-43.7V58.7c-10.8 0-23.1 6.3-29 13.1V61.1h-35.4V81zm-64.4 56.1h35.3v6.24h-35.3zm0 12.5h35.3v6.24h-35.3zm0-56.1h41.8a36.7 36.7 0 0 1 14.7-3.4 26.2 26.2 0 0 1 7.9 1v-3.8h-64.4zm0 18.7h35.3v6.24h-35.3zm0-12.5h35.3v6.24h-35.3z"/><path fill="#010029" d="M122.4 137.2h50.4v6.24h-50.4zm-7.2 12.4h50.4v6.24h-50.4zM201.6 0h151.2v6.24H201.6zM108 162.1h50.4v6.24H108zm64.8-112.2h50.4v6.24h-50.4zm-14.4 24.9h50.4v6.24h-50.4zm7.2-12.4H216v6.24h-50.4zm-36 68.5h151.2v-6.2H129.6v6.2zm57.6-106h151.2v6.24H187.2zM180 43.6h151.2v-6.2H180v6.2zm14.4-31.1h151.2v6.24H194.4zm-43.2 74.8h151.2v6.24H151.2zM144 99.8h151.2v6.24H144zm-7.2 12.4H288v6.24H136.8z"/><path fill="#010029" d="M226.8 130.9H126l25.2 43.7h-50.4l-25.2-43.7L0 0h151.2zM126 43.6H75.6l25.2 43.7h50.4z"/></svg>
