<svg xmlns="http://www.w3.org/2000/svg" width="352.8" height="174.6" viewBox="0 0 352.8 174.6"><title>pf-logo-symbolAsset 1</title><g id="Layer_2" data-name="Layer 2"><g id="Layer_1-2" data-name="Layer 1"><rect x="122.4" y="137.2" width="50.4" height="6.24" fill="#fff"/><rect x="115.2" y="149.6" width="50.4" height="6.24" fill="#fff"/><rect x="201.6" width="151.2" height="6.24" fill="#fff"/><rect x="108" y="162.1" width="50.4" height="6.24" fill="#fff"/><rect x="172.8" y="49.9" width="50.4" height="6.24" fill="#fff"/><rect x="158.4" y="74.8" width="50.4" height="6.24" fill="#fff"/><rect x="165.6" y="62.4" width="50.4" height="6.24" fill="#fff"/><polygon points="129.6 130.9 180 130.9 180 130.9 280.8 130.9 280.8 124.7 129.6 124.7 129.6 130.9" fill="#fff"/><rect x="187.2" y="24.9" width="151.2" height="6.24" fill="#fff"/><polygon points="180 43.6 230.4 43.6 230.4 43.6 331.2 43.6 331.2 37.4 180 37.4 180 43.6" fill="#fff"/><rect x="194.4" y="12.5" width="151.2" height="6.24" fill="#fff"/><rect x="151.2" y="87.3" width="151.2" height="6.24" fill="#fff"/><rect x="144" y="99.8" width="151.2" height="6.24" fill="#fff"/><rect x="136.8" y="112.2" width="151.2" height="6.24" fill="#fff"/><path d="M226.8,130.9H126l25.2,43.7H100.8L75.6,130.9,0,0H151.2ZM126,43.6H75.6l25.2,43.7h50.4Z" fill="#fff"/></g></g></svg>