<svg xmlns="http://www.w3.org/2000/svg" width="71.107" height="71.107" viewBox="0 0 71.107 71.107">
  <g id="Group_1" data-name="Group 1" transform="translate(-209.79 -278.07)">
    <path id="Path_1" data-name="Path 1" d="M280.9,349.177H209.79V278.07H280.9Zm-68.07-3.038h65.032V281.107H212.827Zm37.488-10.165a17.687,17.687,0,0,1-7.829-1.633,9.751,9.751,0,0,1-5.523-9.282V311.488h-5.722v-8.766l1.256-.22c4.214-.74,7.91-5.27,7.91-9.694v-1.519h8.809v9.671h9.72v10.528h-9.72V324.4c0,.368.392.976,1.254,1.441,1.615.874,4.521,1.032,7.834-1.138l2.351-1.54v9.953l-.613.455C258.19,334.943,254.336,335.974,250.315,335.974Zm-16.037-27.523H240v16.608a6.719,6.719,0,0,0,3.851,6.569c4.341,2.184,11.062,1.264,13.767-.125v-3a9.831,9.831,0,0,1-8.592,0,4.871,4.871,0,0,1-2.847-4.114V308.451H255.9V304h-9.719v-9.672h-2.838a13.682,13.682,0,0,1-9.063,10.865Z" fill="#25adcd"/>
  </g>
</svg>
